<svg width="35" height="28" viewBox="0 0 35 28" fill="none" xmlns="http://www.w3.org/2000/svg">
<path d="M31.6507 20.4183V10.9513L18.1699 17.9713C17.6675 18.2388 17.1372 18.3725 16.5789 18.3725C16.0207 18.3725 15.4904 18.2388 14.988 17.9713L0.837335 10.5903C0.530317 10.4298 0.313731 10.2292 0.187574 9.98855C0.0614181 9.74786 -0.00110174 9.48043 1.46898e-05 9.18625C1.46898e-05 8.89208 0.063093 8.62465 0.189249 8.38396C0.315405 8.14328 0.531434 7.9427 0.837335 7.78225L14.988 0.40117C15.2392 0.267455 15.4977 0.166901 15.7634 0.0995088C16.0291 0.0321164 16.301 -0.00104465 16.5789 2.50718e-05C16.8581 2.50718e-05 17.1305 0.0337212 17.3962 0.101114C17.6619 0.168506 17.9198 0.268525 18.1699 0.40117L34.1208 8.745C34.3999 8.87871 34.6165 9.07286 34.7706 9.32746C34.9246 9.58205 35.0011 9.8559 35 10.149V20.4183C35 20.873 34.8392 21.2543 34.5177 21.5624C34.1962 21.8705 33.7987 22.024 33.3253 22.0229C32.8509 22.0229 32.4534 21.8689 32.133 21.5608C31.8126 21.2527 31.6518 20.8719 31.6507 20.4183ZM14.988 27.5988L6.61484 23.2665C6.05663 22.9723 5.62401 22.5711 5.317 22.063C5.00998 21.5549 4.85647 21.0067 4.85647 20.4183V14.3209L14.988 19.5759C15.4904 19.8434 16.0207 19.9771 16.5789 19.9771C17.1372 19.9771 17.6675 19.8434 18.1699 19.5759L28.3014 14.3209V20.4183C28.3014 21.0067 28.1479 21.5549 27.8409 22.063C27.5339 22.5711 27.1013 22.9723 26.5431 23.2665L18.1699 27.5988C17.9187 27.7325 17.6608 27.8331 17.3962 27.9005C17.1316 27.9679 16.8592 28.001 16.5789 28C16.2998 28 16.0274 27.9668 15.7617 27.9005C15.496 27.8342 15.2381 27.7336 14.988 27.5988Z" fill="#A3A3A3"/>
</svg>
