<svg width="25" height="19" viewBox="0 0 25 19" fill="none" xmlns="http://www.w3.org/2000/svg">
<path d="M8.25001 13.9L20.7875 1.36245C21.1771 0.972867 21.6729 0.778076 22.275 0.778076C22.8771 0.778076 23.3729 0.972867 23.7625 1.36245C24.1521 1.75203 24.3469 2.24787 24.3469 2.84995C24.3469 3.45203 24.1521 3.94787 23.7625 4.33745L9.73751 18.3625C9.31251 18.7875 8.81668 19 8.25001 19C7.68335 19 7.18751 18.7875 6.76251 18.3625L1.23751 12.8375C0.847928 12.4479 0.653137 11.952 0.653137 11.3499C0.653137 10.7479 0.847928 10.252 1.23751 9.86245C1.62709 9.47287 2.12293 9.27808 2.72501 9.27808C3.3271 9.27808 3.82293 9.47287 4.21251 9.86245L8.25001 13.9Z" fill="#A3A3A3"/>
</svg>
