<svg width="23" height="23" viewBox="0 0 23 23" fill="none" xmlns="http://www.w3.org/2000/svg">
<path d="M11.5 23C9.90917 23 8.41417 22.6979 7.015 22.0938C5.61583 21.4897 4.39875 20.6705 3.36375 19.6362C2.32875 18.6012 1.50957 17.3842 0.9062 15.985C0.302833 14.5858 0.000766667 13.0908 0 11.5C0 9.90917 0.302067 8.41417 0.9062 7.015C1.51033 5.61583 2.32952 4.39875 3.36375 3.36375C4.39875 2.32875 5.61583 1.50957 7.015 0.9062C8.41417 0.302833 9.90917 0.000766667 11.5 0C13.0908 0 14.5858 0.302067 15.985 0.9062C17.3842 1.51033 18.6012 2.32952 19.6362 3.36375C20.6712 4.39875 21.4908 5.61583 22.0949 7.015C22.6991 8.41417 23.0008 9.90917 23 11.5C23 13.0908 22.6979 14.5858 22.0938 15.985C21.4897 17.3842 20.6705 18.6012 19.6362 19.6362C18.6012 20.6712 17.3842 21.4908 15.985 22.0949C14.5858 22.6991 13.0908 23.0008 11.5 23ZM11.5 20.7C14.0683 20.7 16.2437 19.8087 18.0262 18.0262C19.8087 16.2437 20.7 14.0683 20.7 11.5C20.7 11.3658 20.6954 11.2267 20.6862 11.0825C20.677 10.9384 20.672 10.8188 20.6712 10.7237C20.5754 11.2796 20.3167 11.7396 19.895 12.1037C19.4733 12.4679 18.975 12.65 18.4 12.65H16.1C15.4675 12.65 14.9262 12.425 14.4762 11.9749C14.0262 11.5249 13.8008 10.9833 13.8 10.35V9.2H9.2V6.9C9.2 6.2675 9.4254 5.72623 9.8762 5.2762C10.327 4.82617 10.8683 4.60077 11.5 4.6H12.65C12.65 4.15917 12.77 3.77123 13.0099 3.4362C13.2499 3.10117 13.542 2.82785 13.8862 2.61625C13.5029 2.52042 13.115 2.44375 12.7224 2.38625C12.3299 2.32875 11.9224 2.3 11.5 2.3C8.93167 2.3 6.75625 3.19125 4.97375 4.97375C3.19125 6.75625 2.3 8.93167 2.3 11.5H8.05C9.315 11.5 10.3979 11.9504 11.2987 12.8512C12.1996 13.7521 12.65 14.835 12.65 16.1V17.25H9.2V20.4125C9.58333 20.5083 9.96207 20.5804 10.3362 20.6287C10.7103 20.677 11.0983 20.7008 11.5 20.7Z" fill="#A3A3A3"/>
</svg>
