<svg width="24" height="24" viewBox="0 0 24 24" fill="none" xmlns="http://www.w3.org/2000/svg">
<path d="M7.33333 11.3375V7.20417C7.33333 6.94583 7.44657 6.75768 7.67304 6.63971C7.89951 6.52174 8.11996 6.5269 8.33437 6.65521L11.6281 8.72187C11.8434 8.85104 11.951 9.03403 11.951 9.27083C11.951 9.50764 11.8434 9.69063 11.6281 9.81979L8.33437 11.8865C8.1191 12.0156 7.89822 12.0212 7.67175 11.9032C7.44528 11.7853 7.33247 11.5967 7.33333 11.3375ZM9.27083 17.6667C6.92431 17.6667 4.93858 16.8538 3.31367 15.228C1.68875 13.6022 0.875861 11.6165 0.875 9.27083C0.875 6.92431 1.68789 4.93858 3.31367 3.31367C4.93944 1.68875 6.92517 0.875861 9.27083 0.875C11.6174 0.875 13.6035 1.68789 15.2293 3.31367C16.8551 4.93944 17.6675 6.92517 17.6667 9.27083C17.6667 10.2181 17.516 11.1115 17.2146 11.951C16.9132 12.7906 16.5042 13.5333 15.9875 14.1792L23.2208 21.4125C23.4576 21.6493 23.576 21.9507 23.576 22.3167C23.576 22.6826 23.4576 22.984 23.2208 23.2208C22.984 23.4576 22.6826 23.576 22.3167 23.576C21.9507 23.576 21.6493 23.4576 21.4125 23.2208L14.1792 15.9875C13.5333 16.5042 12.7906 16.9132 11.951 17.2146C11.1115 17.516 10.2181 17.6667 9.27083 17.6667ZM9.27083 15.0833C10.8854 15.0833 12.258 14.5184 13.3887 13.3887C14.5193 12.2589 15.0842 10.8863 15.0833 9.27083C15.0833 7.65625 14.5184 6.28407 13.3887 5.15429C12.2589 4.02451 10.8863 3.45919 9.27083 3.45833C7.65625 3.45833 6.28407 4.02365 5.15429 5.15429C4.02451 6.28493 3.45919 7.65711 3.45833 9.27083C3.45833 10.8854 4.02365 12.258 5.15429 13.3887C6.28493 14.5193 7.65711 15.0842 9.27083 15.0833Z" fill="#A3A3A3"/>
</svg>
