<svg width="23" height="22" viewBox="0 0 23 22" fill="none" xmlns="http://www.w3.org/2000/svg">
<path d="M2.09091 22C1.51591 22 1.02385 21.795 0.614727 21.385C0.205606 20.9751 0.00069697 20.4816 0 19.9048V8.38095H2.09091V19.9048H19.8636V22H2.09091ZM6.27273 17.8095C5.69773 17.8095 5.20567 17.6045 4.79655 17.1946C4.38742 16.7846 4.18252 16.2912 4.18182 15.7143V4.19048H9.40909V2.09524C9.40909 1.51905 9.614 1.02597 10.0238 0.616C10.4336 0.206032 10.9257 0.000698413 11.5 0H15.6818C16.2568 0 16.7492 0.205333 17.159 0.616C17.5689 1.02667 17.7734 1.51975 17.7727 2.09524V4.19048H23V15.7143C23 16.2905 22.7954 16.7839 22.3863 17.1946C21.9772 17.6052 21.4848 17.8102 20.9091 17.8095H6.27273ZM11.5 4.19048H15.6818V2.09524H11.5V4.19048Z" fill="#A3A3A3"/>
</svg>
