<svg width="26" height="27" viewBox="0 0 26 27" fill="none" xmlns="http://www.w3.org/2000/svg">
<path d="M15.3471 27C14.8249 27 14.3812 26.8127 14.0161 26.4381C13.6509 26.0636 13.468 25.608 13.4671 25.0714V16.0714C13.4671 15.5357 13.6501 15.0806 14.0161 14.706C14.382 14.3314 14.8257 14.1437 15.3471 14.1429H24.1201C24.6423 14.1429 25.0864 14.3306 25.4523 14.706C25.8183 15.0814 26.0008 15.5366 26 16.0714V25.0714C26 25.6071 25.8174 26.0627 25.4523 26.4381C25.0872 26.8136 24.6431 27.0009 24.1201 27H15.3471ZM15.3471 25.0714H24.1201V24.0429C23.5979 23.3786 22.9608 22.8484 22.2088 22.4524C21.4568 22.0564 20.6318 21.858 19.7336 21.8571C18.8354 21.8571 18.0103 22.0556 17.2583 22.4524C16.5064 22.8493 15.8693 23.3794 15.3471 24.0429V25.0714ZM19.7336 20.5714C20.2558 20.5714 20.6998 20.3841 21.0658 20.0096C21.4318 19.635 21.6143 19.1794 21.6135 18.6429C21.6135 18.1071 21.4309 17.652 21.0658 17.2774C20.7007 16.9029 20.2566 16.7151 19.7336 16.7143C19.2114 16.7143 18.7677 16.902 18.4026 17.2774C18.0375 17.6529 17.8545 18.108 17.8536 18.6429C17.8536 19.1786 18.0366 19.6341 18.4026 20.0096C18.7685 20.385 19.2122 20.5723 19.7336 20.5714ZM12.2765 8.35714C11.065 8.35714 10.031 8.79643 9.17463 9.675C8.31821 10.5536 7.89001 11.6143 7.89001 12.8571C7.89001 13.8857 8.172 14.7857 8.73598 15.5571C9.29996 16.3286 10.0415 16.8643 10.9606 17.1643V14.2714C10.7935 14.1 10.6577 13.8801 10.5532 13.6119C10.4488 13.3436 10.3966 13.092 10.3966 12.8571C10.3966 12.3214 10.5796 11.8663 10.9455 11.4917C11.3115 11.1171 11.7551 10.9294 12.2765 10.9286C12.5689 10.9286 12.83 10.9877 13.0598 11.106C13.2896 11.2243 13.488 11.3794 13.6551 11.5714H16.475C16.2035 10.6286 15.6867 9.85714 14.9247 9.25714C14.1627 8.65714 13.28 8.35714 12.2765 8.35714ZM10.9606 25.7143H9.86393C9.55061 25.7143 9.27907 25.6071 9.0493 25.3929C8.81953 25.1786 8.68376 24.9107 8.64198 24.5893L8.26599 21.6C7.99445 21.4929 7.73878 21.3643 7.49898 21.2143C7.25919 21.0643 7.02399 20.9036 6.79338 20.7321L4.06748 21.8893C3.77505 22.0179 3.48262 22.0341 3.19018 21.9381C2.89775 21.8421 2.66798 21.6544 2.50088 21.375L0.182296 17.2286C0.0151913 16.95 -0.0370289 16.65 0.0256354 16.3286C0.0882997 16.0071 0.244961 15.75 0.495618 15.5571L2.84553 13.725C2.82464 13.575 2.8142 13.4306 2.8142 13.2917V12.4239C2.8142 12.2841 2.82464 12.1393 2.84553 11.9893L0.495618 10.1571C0.244961 9.96428 0.0882997 9.70714 0.0256354 9.38571C-0.0370289 9.06428 0.0151913 8.76429 0.182296 8.48571L2.50088 4.33929C2.66798 4.06071 2.89775 3.87343 3.19018 3.77743C3.48262 3.68143 3.77505 3.69729 4.06748 3.825L6.79338 4.98214C7.02315 4.81071 7.26336 4.65 7.51402 4.5C7.76468 4.35 8.01534 4.22143 8.26599 4.11429L8.64198 1.125C8.68376 0.803571 8.81953 0.535714 9.0493 0.321429C9.27907 0.107143 9.55061 0 9.86393 0H14.5638C14.8771 0 15.1486 0.107143 15.3784 0.321429C15.6082 0.535714 15.7439 0.803571 15.7857 1.125L16.1617 4.11429C16.4332 4.22143 16.6893 4.35 16.93 4.5C17.1706 4.65 17.4054 4.81071 17.6343 4.98214L20.3602 3.825C20.6526 3.69643 20.9451 3.68014 21.2375 3.77614C21.5299 3.87214 21.7597 4.05986 21.9268 4.33929L24.2454 8.51786C24.4125 8.79643 24.4647 9.09128 24.4021 9.40243C24.3394 9.71357 24.1827 9.96514 23.9321 10.1571L22.1461 11.5714H18.9816C18.9607 11.4643 18.9398 11.352 18.9189 11.2346C18.898 11.1171 18.8667 11.0044 18.8249 10.8964L21.5195 8.80714L20.2975 6.62143L17.1957 7.97143C16.7361 7.47857 16.2294 7.06628 15.6754 6.73457C15.1215 6.40286 14.5211 6.15086 13.8745 5.97857L13.4671 2.57143H10.9919L10.5532 5.97857C9.90571 6.15 9.30539 6.402 8.75227 6.73457C8.19915 7.06714 7.69241 7.46871 7.23203 7.93929L4.13015 6.62143L2.90819 8.80714L5.60276 10.8643C5.49832 11.1857 5.42521 11.5071 5.38344 11.8286C5.34166 12.15 5.32077 12.4929 5.32077 12.8571C5.32077 13.2 5.34166 13.5321 5.38344 13.8536C5.42521 14.175 5.49832 14.4964 5.60276 14.8179L2.90819 16.9071L4.13015 19.0929L7.23203 17.7429C7.73335 18.2786 8.29733 18.7286 8.92397 19.0929C9.55061 19.4571 10.2295 19.6929 10.9606 19.8V25.7143Z" fill="#A3A3A3"/>
</svg>
