<svg width="40" height="26" viewBox="0 0 40 26" fill="none" xmlns="http://www.w3.org/2000/svg">
<path d="M21.9843 25.638C21.2881 26.0925 20.5835 26.119 19.8705 25.7177C19.1575 25.3164 18.8003 24.6955 18.799 23.8551V15.098H2.08877C1.49695 15.098 1.00122 14.8967 0.601567 14.4939C0.201915 14.0912 0.00139252 13.5934 0 13.0005C0 12.4062 0.200522 11.9084 0.601567 11.5071C1.00261 11.1058 1.49835 10.9044 2.08877 10.903H18.799V2.14593C18.799 1.30693 19.1561 0.686069 19.8705 0.283348C20.5849 -0.119373 21.2895 -0.0928048 21.9843 0.363053L39.0078 11.2176C39.6693 11.6371 40 12.2314 40 13.0005C40 13.7696 39.6693 14.3639 39.0078 14.7834L21.9843 25.638Z" fill="#99FF91"/>
</svg>
