<svg width="47" height="36" viewBox="0 0 47 36" fill="none" xmlns="http://www.w3.org/2000/svg">
<path d="M15.0695 25.9242L39.9395 1.15452C40.7123 0.384838 41.6958 0 42.8901 0C44.0845 0 45.068 0.384838 45.8408 1.15452C46.6136 1.9242 47 2.90379 47 4.09329C47 5.2828 46.6136 6.26239 45.8408 7.03207L18.0202 34.7405C17.1771 35.5802 16.1936 36 15.0695 36C13.9454 36 12.9619 35.5802 12.1188 34.7405L1.15919 23.8251C0.386396 23.0554 0 22.0758 0 20.8863C0 19.6968 0.386396 18.7172 1.15919 17.9475C1.93199 17.1778 2.91554 16.793 4.10986 16.793C5.30418 16.793 6.28774 17.1778 7.06054 17.9475L15.0695 25.9242Z" fill="#99FF91"/>
</svg>
