<svg width="43" height="48" viewBox="0 0 43 48" fill="none" xmlns="http://www.w3.org/2000/svg">
<path d="M8 48C6.53333 48 5.27822 47.4782 4.23467 46.4347C3.19111 45.3911 2.66844 44.1351 2.66667 42.6667V8C1.91111 8 1.27822 7.744 0.768 7.232C0.257778 6.72 0.00177778 6.08711 0 5.33333C0 4.57778 0.256 3.94489 0.768 3.43467C1.28 2.92444 1.91289 2.66844 2.66667 2.66667H13.3333C13.3333 1.91111 13.5893 1.27822 14.1013 0.768C14.6133 0.257778 15.2462 0.00177778 16 0H26.6667C27.4222 0 28.056 0.256 28.568 0.768C29.08 1.28 29.3351 1.91289 29.3333 2.66667H40C40.7556 2.66667 41.3893 2.92267 41.9013 3.43467C42.4133 3.94667 42.6684 4.57956 42.6667 5.33333C42.6667 6.08889 42.4107 6.72267 41.8987 7.23467C41.3867 7.74667 40.7538 8.00178 40 8V42.6667C40 44.1333 39.4782 45.3893 38.4347 46.4347C37.3911 47.48 36.1351 48.0018 34.6667 48H8ZM34.6667 8H8V42.6667H34.6667V8ZM18.6667 23.6V32C18.6667 32.7556 18.9227 33.3893 19.4347 33.9013C19.9467 34.4133 20.5796 34.6684 21.3333 34.6667C22.0889 34.6667 22.7227 34.4107 23.2347 33.8987C23.7467 33.3867 24.0018 32.7538 24 32V23.6L26.4 25.9333C26.8889 26.4222 27.5004 26.6667 28.2347 26.6667C28.9689 26.6667 29.6018 26.4 30.1333 25.8667C30.6222 25.3778 30.8667 24.7556 30.8667 24C30.8667 23.2444 30.6222 22.6222 30.1333 22.1333L23.2 15.2C22.6667 14.6667 22.0444 14.4 21.3333 14.4C20.6222 14.4 20 14.6667 19.4667 15.2L12.5333 22.1333C12.0444 22.6222 11.7893 23.2338 11.768 23.968C11.7467 24.7022 12.0018 25.3351 12.5333 25.8667C13.0222 26.3556 13.6338 26.6116 14.368 26.6347C15.1022 26.6578 15.7351 26.424 16.2667 25.9333L18.6667 23.6Z" fill="#FF9191"/>
</svg>
