<svg width="24" height="31" viewBox="0 0 24 31" fill="none" xmlns="http://www.w3.org/2000/svg">
<path d="M3 31C2.175 31 1.469 30.7112 0.882 30.1335C0.295 29.5558 0.001 28.8605 0 28.0476V13.2857C0 12.4738 0.294 11.779 0.882 11.2013C1.47 10.6237 2.176 10.3343 3 10.3333H4.5V7.38095C4.5 5.33889 5.2315 3.59846 6.6945 2.15967C8.1575 0.720873 9.926 0.000984127 12 0C14.075 0 15.844 0.719889 17.307 2.15967C18.77 3.59944 19.501 5.33987 19.5 7.38095V10.3333H21C21.825 10.3333 22.5315 10.6227 23.1195 11.2013C23.7075 11.78 24.001 12.4748 24 13.2857V28.0476C24 28.8595 23.7065 29.5548 23.1195 30.1335C22.5325 30.7121 21.826 31.001 21 31H3ZM12 23.619C12.825 23.619 13.5315 23.3302 14.1195 22.7525C14.7075 22.1748 15.001 21.4796 15 20.6667C15 19.8548 14.7065 19.16 14.1195 18.5823C13.5325 18.0046 12.826 17.7153 12 17.7143C11.175 17.7143 10.469 18.0036 9.882 18.5823C9.295 19.161 9.001 19.8557 9 20.6667C9 21.4786 9.294 22.1739 9.882 22.7525C10.47 23.3312 11.176 23.62 12 23.619ZM7.5 10.3333H16.5V7.38095C16.5 6.15079 16.0625 5.10516 15.1875 4.24405C14.3125 3.38294 13.25 2.95238 12 2.95238C10.75 2.95238 9.6875 3.38294 8.8125 4.24405C7.9375 5.10516 7.5 6.15079 7.5 7.38095V10.3333Z" fill="#A3A3A3"/>
</svg>
