<svg width="25" height="25" viewBox="0 0 25 25" fill="none" xmlns="http://www.w3.org/2000/svg">
<path d="M16.7302 13.1135L11.8865 8.2375L15.4708 4.68542L14.5344 3.74896L7.4625 10.8208L5.65417 9.0125L12.6937 1.94063C13.2104 1.42396 13.8188 1.16562 14.5189 1.16562C15.219 1.16562 15.8269 1.42396 16.3427 1.94063L17.2792 2.87708L18.8938 1.2625C19.1521 1.00417 19.4591 0.875 19.8147 0.875C20.1703 0.875 20.4769 1.00417 20.7344 1.2625L23.7375 4.26562C23.9958 4.52396 24.125 4.83094 24.125 5.18658C24.125 5.54222 23.9958 5.84878 23.7375 6.10625L16.7302 13.1135ZM5.71875 24.125H0.875V19.2812L10.0458 10.0781L14.9219 14.9219L5.71875 24.125Z" fill="#A3A3A3"/>
</svg>
