<svg width="41" height="30" viewBox="0 0 41 30" fill="none" xmlns="http://www.w3.org/2000/svg">
<path d="M0 30V24.75C0 23.6875 0.272091 22.7112 0.816273 21.8212C1.36045 20.9312 2.0823 20.2513 2.98182 19.7812C4.90758 18.8125 6.86439 18.0862 8.85227 17.6025C10.8402 17.1187 12.8591 16.8762 14.9091 16.875C16.9591 16.875 18.978 17.1175 20.9659 17.6025C22.9538 18.0875 24.9106 18.8138 26.8364 19.7812C27.7371 20.25 28.4596 20.93 29.0038 21.8212C29.548 22.7125 29.8194 23.6888 29.8182 24.75V30H0ZM33.5455 30V24.375C33.5455 23 33.1653 21.6794 32.4049 20.4131C31.6445 19.1469 30.5649 18.0612 29.1659 17.1562C30.75 17.3438 32.2409 17.6644 33.6386 18.1181C35.0364 18.5719 36.3409 19.1263 37.5523 19.7812C38.6705 20.4062 39.5246 21.1012 40.1148 21.8662C40.7049 22.6312 41 23.4675 41 24.375V30H33.5455ZM14.9091 15C12.8591 15 11.1042 14.2656 9.64432 12.7969C8.18447 11.3281 7.45455 9.5625 7.45455 7.5C7.45455 5.4375 8.18447 3.67188 9.64432 2.20313C11.1042 0.734375 12.8591 0 14.9091 0C16.9591 0 18.714 0.734375 20.1739 2.20313C21.6337 3.67188 22.3636 5.4375 22.3636 7.5C22.3636 9.5625 21.6337 11.3281 20.1739 12.7969C18.714 14.2656 16.9591 15 14.9091 15ZM33.5455 7.5C33.5455 9.5625 32.8155 11.3281 31.3557 12.7969C29.8958 14.2656 28.1409 15 26.0909 15C25.7492 15 25.3144 14.9612 24.7864 14.8837C24.2583 14.8062 23.8235 14.72 23.4818 14.625C24.3205 13.625 24.9653 12.5156 25.4163 11.2969C25.8673 10.0781 26.0922 8.8125 26.0909 7.5C26.0909 6.1875 25.866 4.92188 25.4163 3.70312C24.9665 2.48437 24.3217 1.375 23.4818 0.375C23.9167 0.21875 24.3515 0.1175 24.7864 0.0712502C25.2212 0.0250002 25.6561 0.00125 26.0909 0C28.1409 0 29.8958 0.734375 31.3557 2.20313C32.8155 3.67188 33.5455 5.4375 33.5455 7.5ZM3.72727 26.25H26.0909V24.75C26.0909 24.4063 26.0058 24.0938 25.8356 23.8125C25.6654 23.5313 25.4399 23.3125 25.1591 23.1562C23.4818 22.3125 21.789 21.68 20.0807 21.2588C18.3723 20.8375 16.6485 20.6262 14.9091 20.625C13.1697 20.625 11.4458 20.8363 9.7375 21.2588C8.02917 21.6812 6.33636 22.3138 4.65909 23.1562C4.37955 23.3125 4.15405 23.5313 3.98259 23.8125C3.81114 24.0938 3.72603 24.4063 3.72727 24.75V26.25ZM14.9091 11.25C15.9341 11.25 16.8119 10.8831 17.5424 10.1494C18.273 9.41563 18.6376 8.5325 18.6364 7.5C18.6364 6.46875 18.2717 5.58625 17.5424 4.8525C16.8131 4.11875 15.9353 3.75125 14.9091 3.75C13.8841 3.75 13.0069 4.1175 12.2776 4.8525C11.5483 5.5875 11.1831 6.47 11.1818 7.5C11.1818 8.53125 11.5471 9.41438 12.2776 10.1494C13.0082 10.8844 13.8853 11.2513 14.9091 11.25Z" fill="#A3A3A3"/>
</svg>
