<svg width="30" height="29" viewBox="0 0 30 29" fill="none" xmlns="http://www.w3.org/2000/svg">
<path d="M15 14.5C12.9375 14.5 11.1719 13.7901 9.70312 12.3703C8.23437 10.9505 7.5 9.24375 7.5 7.25C7.5 5.25625 8.23437 3.54948 9.70312 2.12969C11.1719 0.709896 12.9375 0 15 0C17.0625 0 18.8281 0.709896 20.2969 2.12969C21.7656 3.54948 22.5 5.25625 22.5 7.25C22.5 9.24375 21.7656 10.9505 20.2969 12.3703C18.8281 13.7901 17.0625 14.5 15 14.5ZM0 29V23.925C0 22.8979 0.27375 21.9542 0.82125 21.0939C1.36875 20.2335 2.095 19.5762 3 19.1219C4.9375 18.1854 6.90625 17.4834 8.90625 17.0157C10.9062 16.5481 12.9375 16.3137 15 16.3125C17.0625 16.3125 19.0937 16.5469 21.0937 17.0157C23.0937 17.4846 25.0625 18.1866 27 19.1219C27.9062 19.575 28.6331 20.2323 29.1806 21.0939C29.7281 21.9554 30.0012 22.8991 30 23.925V29H0Z" fill="#A3A3A3"/>
</svg>
