<svg width="24" height="24" viewBox="0 0 24 24" fill="none" xmlns="http://www.w3.org/2000/svg">
<path d="M12.84 14.46L19.62 7.68L17.94 5.94L12.84 11.04L10.26 8.52L8.58 10.2L12.84 14.46ZM7.2 19.2C6.54 19.2 5.9752 18.9652 5.5056 18.4956C5.036 18.026 4.8008 17.4608 4.8 16.8V2.4C4.8 1.74 5.0352 1.1752 5.5056 0.7056C5.976 0.236 6.5408 0.0008 7.2 0H21.6C22.26 0 22.8252 0.2352 23.2956 0.7056C23.766 1.176 24.0008 1.7408 24 2.4V16.8C24 17.46 23.7652 18.0252 23.2956 18.4956C22.826 18.966 22.2608 19.2008 21.6 19.2H7.2ZM7.2 16.8H21.6V2.4H7.2V16.8ZM2.4 24C1.74 24 1.1752 23.7652 0.7056 23.2956C0.236 22.826 0.0008 22.2608 0 21.6V4.8H2.4V21.6H19.2V24H2.4Z" fill="#A3A3A3"/>
</svg>
