<svg width="28" height="30" viewBox="0 0 28 30" fill="none" xmlns="http://www.w3.org/2000/svg">
<path d="M5.66666 30C4.74999 30 3.96555 29.6739 3.31332 29.0217C2.6611 28.3694 2.33443 27.5844 2.33332 26.6667V5C1.8611 5 1.46555 4.84 1.14666 4.52C0.827768 4.2 0.667768 3.80444 0.666656 3.33333C0.666656 2.86111 0.826657 2.46556 1.14666 2.14667C1.46666 1.82778 1.86221 1.66778 2.33332 1.66667H8.99999C8.99999 1.19444 9.15999 0.798889 9.47999 0.48C9.79999 0.161111 10.1955 0.00111111 10.6667 0H17.3333C17.8055 0 18.2017 0.16 18.5217 0.48C18.8417 0.8 19.0011 1.19556 19 1.66667H25.6667C26.1389 1.66667 26.535 1.82667 26.855 2.14667C27.175 2.46667 27.3344 2.86222 27.3333 3.33333C27.3333 3.80556 27.1733 4.20167 26.8533 4.52167C26.5333 4.84167 26.1378 5.00111 25.6667 5V26.6667C25.6667 27.5833 25.3405 28.3683 24.6883 29.0217C24.0361 29.675 23.2511 30.0011 22.3333 30H5.66666ZM14 18.1667L17.1667 21.3333C17.4722 21.6389 17.8611 21.7917 18.3333 21.7917C18.8055 21.7917 19.1944 21.6389 19.5 21.3333C19.8055 21.0278 19.9583 20.6389 19.9583 20.1667C19.9583 19.6944 19.8055 19.3056 19.5 19L16.3333 15.8333L19.5 12.6667C19.8055 12.3611 19.9583 11.9722 19.9583 11.5C19.9583 11.0278 19.8055 10.6389 19.5 10.3333C19.1944 10.0278 18.8055 9.875 18.3333 9.875C17.8611 9.875 17.4722 10.0278 17.1667 10.3333L14 13.5L10.8333 10.3333C10.5278 10.0278 10.1389 9.875 9.66666 9.875C9.19443 9.875 8.80555 10.0278 8.49999 10.3333C8.19443 10.6389 8.04166 11.0278 8.04166 11.5C8.04166 11.9722 8.19443 12.3611 8.49999 12.6667L11.6667 15.8333L8.49999 19C8.19443 19.3056 8.04166 19.6944 8.04166 20.1667C8.04166 20.6389 8.19443 21.0278 8.49999 21.3333C8.80555 21.6389 9.19443 21.7917 9.66666 21.7917C10.1389 21.7917 10.5278 21.6389 10.8333 21.3333L14 18.1667Z" fill="#A3A3A3"/>
</svg>
