<svg width="29" height="20" viewBox="0 0 29 20" fill="none" xmlns="http://www.w3.org/2000/svg">
<path d="M14.5 15.6667C16.1146 15.6667 17.4872 15.1019 18.6178 13.9721C19.7485 12.8423 20.3134 11.4697 20.3125 9.85425C20.3125 8.23966 19.7476 6.86748 18.6178 5.73771C17.4881 4.60793 16.1154 4.04261 14.5 4.04175C12.8854 4.04175 11.5132 4.60707 10.3835 5.73771C9.25369 6.86834 8.68837 8.24053 8.6875 9.85425C8.6875 11.4688 9.25282 12.8414 10.3835 13.9721C11.5141 15.1027 12.8863 15.6676 14.5 15.6667ZM14.5 13.3417C13.5313 13.3417 12.708 13.0025 12.0303 12.3239C11.3526 11.6454 11.0134 10.8221 11.0125 9.85425C11.0125 8.8855 11.3518 8.06228 12.0303 7.38458C12.7089 6.70689 13.5321 6.36761 14.5 6.36675C15.4688 6.36675 16.2924 6.70603 16.971 7.38458C17.6495 8.06314 17.9884 8.88636 17.9875 9.85425C17.9875 10.823 17.6487 11.6467 16.971 12.3252C16.2933 13.0038 15.4696 13.3426 14.5 13.3417ZM14.5 19.5417C11.6153 19.5417 8.9833 18.7667 6.60405 17.2167C4.2248 15.6667 2.34671 13.6216 0.969798 11.0813C0.862159 10.8876 0.781645 10.6887 0.728256 10.4846C0.674867 10.2805 0.647742 10.0704 0.646881 9.85425C0.646881 9.63897 0.674006 9.42886 0.728256 9.22391C0.782506 9.01897 0.86302 8.82005 0.969798 8.62716C2.34758 6.08689 4.22609 4.04175 6.60534 2.49175C8.98459 0.941748 11.6161 0.166748 14.5 0.166748C17.3847 0.166748 20.0167 0.941748 22.396 2.49175C24.7752 4.04175 26.6533 6.08689 28.0302 8.62716C28.1379 8.82091 28.2188 9.02026 28.273 9.22521C28.3273 9.43015 28.354 9.63983 28.3531 9.85425C28.3531 10.0695 28.3264 10.2796 28.273 10.4846C28.2197 10.6895 28.1387 10.8884 28.0302 11.0813C26.6524 13.6216 24.7744 15.6667 22.396 17.2167C20.0176 18.7667 17.3856 19.5417 14.5 19.5417Z" fill="#A3A3A3"/>
</svg>
