<svg width="39" height="32" viewBox="0 0 39 32" fill="none" xmlns="http://www.w3.org/2000/svg">
<path d="M30.1364 24.8889V19.5556H24.8182V16H30.1364V10.6667H33.6818V16H39V19.5556H33.6818V24.8889H30.1364ZM17.7273 32L12.0989 26.9333C9.97159 25.0074 8.14687 23.2889 6.62469 21.7778C5.1025 20.2667 3.84682 18.8444 2.85764 17.5111C1.86846 16.1778 1.1446 14.8889 0.68605 13.6444C0.227504 12.4 -0.00117726 11.0963 4.55714e-06 9.73333C4.55714e-06 6.94815 0.930687 4.62993 2.79205 2.77867C4.65341 0.927408 6.97273 0.00118519 9.75 0C11.2864 0 12.7489 0.318815 14.1375 0.956445C15.5261 1.59407 16.7227 2.50489 17.7273 3.68889C18.7318 2.5037 19.9284 1.59289 21.317 0.956445C22.7057 0.32 24.1682 0.00118519 25.7045 0C28.2159 0 30.3213 0.763259 32.0208 2.28978C33.7202 3.8163 34.7762 5.60119 35.1886 7.64444C34.6568 7.43704 34.125 7.28178 33.5932 7.17867C33.0614 7.07556 32.5443 7.02341 32.042 7.02222C29.058 7.02222 26.517 8.06696 24.4193 10.1564C22.3216 12.2459 21.2727 14.7864 21.2727 17.7778C21.2727 19.3185 21.583 20.7781 22.2034 22.1564C22.8239 23.5348 23.6955 24.7123 24.8182 25.6889C24.2568 26.1926 23.5259 26.8373 22.6253 27.6231C21.7248 28.4089 20.9489 29.0975 20.2977 29.6889L17.7273 32Z" fill="#FF9191"/>
</svg>
