<svg width="20" height="40" viewBox="0 0 20 40" fill="none" xmlns="http://www.w3.org/2000/svg">
<path d="M9.76966 40C9.14631 40 8.62415 39.7867 8.20321 39.36C7.78226 38.9333 7.57105 38.4059 7.56958 37.7778V35.2222C5.91953 34.8518 4.47115 34.2037 3.22444 33.2778C1.97773 32.3518 0.969367 31.0556 0.199341 29.3889C-0.0573342 28.8704 -0.0661346 28.3244 0.17294 27.7511C0.412015 27.1778 0.842495 26.7607 1.46438 26.5C1.97773 26.2778 2.50942 26.2874 3.05944 26.5289C3.60946 26.7704 4.03114 27.1681 4.32448 27.7222C4.94783 28.8333 5.73619 29.6763 6.68956 30.2511C7.64292 30.8259 8.8163 31.1126 10.2097 31.1111C11.7131 31.1111 12.9869 30.7689 14.0312 30.0844C15.0755 29.4 15.5984 28.3348 15.5999 26.8889C15.5999 25.5926 15.1965 24.5652 14.3898 23.8067C13.5831 23.0481 11.7131 22.1867 8.77963 21.2222C5.62619 20.2222 3.46278 19.0281 2.28941 17.64C1.11604 16.2519 0.529351 14.557 0.529351 12.5556C0.529351 10.1482 1.29938 8.27778 2.83943 6.94445C4.37948 5.61112 5.9562 4.85186 7.56958 4.66667V2.22223C7.56958 1.5926 7.78079 1.06445 8.20321 0.637785C8.62562 0.211119 9.14777 -0.00147379 9.76966 7.68935e-06C10.393 7.68935e-06 10.9159 0.213341 11.3383 0.640008C11.7607 1.06667 11.9712 1.59408 11.9697 2.22223V4.66667C13.3631 4.88889 14.5732 5.34297 15.5999 6.02889C16.6266 6.71482 17.4699 7.55704 18.1299 8.55556C18.4599 9.03704 18.5245 9.57408 18.3235 10.1667C18.1226 10.7593 17.7097 11.1852 17.0849 11.4444C16.5716 11.6667 16.0399 11.6763 15.4899 11.4733C14.9398 11.2704 14.4265 10.9089 13.9498 10.3889C13.4731 9.87037 12.9136 9.4726 12.2711 9.19556C11.6287 8.91852 10.8316 8.77926 9.87966 8.77778C8.26628 8.77778 7.0379 9.13926 6.19454 9.86223C5.35118 10.5852 4.9295 11.483 4.9295 12.5556C4.9295 13.7778 5.47952 14.7407 6.57955 15.4444C7.67959 16.1481 9.58632 16.8889 12.2997 17.6667C14.8298 18.4074 16.7461 19.5837 18.0485 21.1956C19.351 22.8074 20.0015 24.6681 20 26.7778C20 29.4074 19.23 31.4074 17.6899 32.7778C16.1499 34.1481 14.2431 35 11.9697 35.3333V37.7778C11.9697 38.4074 11.7585 38.9355 11.3361 39.3622C10.9137 39.7889 10.3915 40.0015 9.76966 40Z" fill="#A3A3A3"/>
</svg>
