<svg width="28" height="25" viewBox="0 0 28 25" fill="none" xmlns="http://www.w3.org/2000/svg">
<path d="M24.1536 25L18.6775 19.7601C17.9169 19.9916 17.1455 20.1654 16.3632 20.2816C15.5809 20.3977 14.7877 20.4554 13.9837 20.4545C11.0718 20.4545 8.40977 19.697 5.99767 18.1818C3.58556 16.6667 1.69499 14.6675 0.32596 12.1843C0.217307 11.9949 0.136034 11.8005 0.0821421 11.601C0.02825 11.4015 0.000869227 11.1961 0 10.9848C0 10.7744 0.0273808 10.569 0.0821421 10.3687C0.136903 10.1683 0.218176 9.9739 0.32596 9.78535C0.804035 8.96465 1.31471 8.16498 1.85797 7.38636C2.40124 6.60774 3.03143 5.9133 3.74854 5.30303L0.16298 1.76768L1.98836 0L25.979 23.2323L24.1536 25ZM13.9837 16.6667C14.2227 16.6667 14.4509 16.6561 14.6682 16.6351C14.8855 16.6141 15.1028 16.572 15.3201 16.5088L8.27939 9.69066C8.2142 9.90109 8.17074 10.1115 8.149 10.322C8.12727 10.5324 8.11641 10.7534 8.11641 10.9848C8.11641 12.5631 8.68706 13.9049 9.82835 15.0101C10.9696 16.1153 12.3548 16.6675 13.9837 16.6667ZM23.5017 17.2348L19.362 13.2576C19.5142 12.8998 19.6337 12.5316 19.7206 12.1528C19.8075 11.774 19.851 11.3847 19.851 10.9848C19.851 9.40656 19.2808 8.06523 18.1403 6.96086C16.9999 5.85648 15.6144 5.30387 13.9837 5.30303C13.5708 5.30303 13.1688 5.34512 12.7776 5.42929C12.3865 5.51347 12.0062 5.63973 11.6368 5.80808L8.31198 2.58838C9.22467 2.23064 10.1539 1.96254 11.0996 1.78409C12.0453 1.60564 13.0067 1.51599 13.9837 1.51515C16.8956 1.51515 19.5633 2.2782 21.9867 3.80429C24.4101 5.33039 26.3059 7.33459 27.674 9.81692C27.7827 9.98527 27.8644 10.1696 27.9191 10.3699C27.9739 10.5703 28.0008 10.7753 28 10.9848C28 11.1953 27.9783 11.4007 27.9348 11.601C27.8913 11.8013 27.8153 11.9853 27.7066 12.1528C27.1851 13.1418 26.5818 14.0678 25.8969 14.9306C25.2119 15.7933 24.4135 16.5614 23.5017 17.2348ZM17.4715 11.4268L13.5599 7.63889C14.1249 7.53367 14.6739 7.57576 15.2067 7.76515C15.7395 7.95454 16.1902 8.24916 16.5588 8.64899C16.9282 9.02778 17.1946 9.45917 17.358 9.94318C17.5214 10.4272 17.5593 10.9217 17.4715 11.4268Z" fill="#A3A3A3"/>
</svg>
