<svg width="36" height="36" viewBox="0 0 36 36" fill="none" xmlns="http://www.w3.org/2000/svg">
<path d="M25.2 23.4C23.7 23.4 22.425 22.875 21.375 21.825C20.325 20.775 19.8 19.5 19.8 18C19.8 16.5 20.325 15.225 21.375 14.175C22.425 13.125 23.7 12.6 25.2 12.6C26.7 12.6 27.975 13.125 29.025 14.175C30.075 15.225 30.6 16.5 30.6 18C30.6 19.5 30.075 20.775 29.025 21.825C27.975 22.875 26.7 23.4 25.2 23.4ZM10.8 30.78V32.4H3.6C2.61 32.4 1.7628 32.0478 1.0584 31.3434C0.354 30.639 0.0012 29.7912 0 28.8V3.6C0 2.61 0.3528 1.7628 1.0584 1.0584C1.764 0.354 2.6112 0.0012 3.6 0H28.8C29.79 0 30.6378 0.3528 31.3434 1.0584C32.049 1.764 32.4012 2.6112 32.4 3.6V12.6C31.47 11.43 30.42 10.5378 29.25 9.9234C28.08 9.309 26.73 9.0012 25.2 9C25.2 8.49 25.0272 8.0628 24.6816 7.7184C24.336 7.374 23.9088 7.2012 23.4 7.2H9C8.49 7.2 8.0628 7.3728 7.7184 7.7184C7.374 8.064 7.2012 8.4912 7.2 9C7.2 9.51 7.3728 9.9378 7.7184 10.2834C8.064 10.629 8.4912 10.8012 9 10.8H19.8C19.2 11.28 18.66 11.82 18.18 12.42C17.7 13.02 17.295 13.68 16.965 14.4H9C8.49 14.4 8.0628 14.5728 7.7184 14.9184C7.374 15.264 7.2012 15.6912 7.2 16.2C7.2 16.71 7.3728 17.1378 7.7184 17.4834C8.064 17.829 8.4912 18.0012 9 18H16.2C16.2 18.63 16.2678 19.245 16.4034 19.845C16.539 20.445 16.7262 21.03 16.965 21.6H9C8.49 21.6 8.0628 21.7728 7.7184 22.1184C7.374 22.464 7.2012 22.8912 7.2 23.4C7.2 23.91 7.3728 24.3378 7.7184 24.6834C8.064 25.029 8.4912 25.2012 9 25.2H13.41C12.6 25.89 11.9628 26.7228 11.4984 27.6984C11.034 28.674 10.8012 29.7012 10.8 30.78ZM16.2 36C15.69 36 15.2628 35.8272 14.9184 35.4816C14.574 35.136 14.4012 34.7088 14.4 34.2V30.78C14.4 30.15 14.55 29.5578 14.85 29.0034C15.15 28.449 15.57 28.0062 16.11 27.675C17.07 27.105 17.88 26.7072 18.54 26.4816C19.2 26.256 20.085 26.0538 21.195 25.875C21.555 25.815 21.915 25.8228 22.275 25.8984C22.635 25.974 22.935 26.1462 23.175 26.415L25.2 28.8L27.18 26.415C27.42 26.115 27.72 25.935 28.08 25.875C28.44 25.815 28.8 25.815 29.16 25.875C30.27 26.055 31.155 26.2578 31.815 26.4834C32.475 26.709 33.285 27.1062 34.245 27.675C34.785 28.005 35.2128 28.4478 35.5284 29.0034C35.844 29.559 36.0012 30.1512 36 30.78V34.2C36 34.71 35.8272 35.1378 35.4816 35.4834C35.136 35.829 34.7088 36.0012 34.2 36H16.2Z" fill="#A3A3A3"/>
</svg>
