<svg width="25" height="23" viewBox="0 0 25 23" fill="none" xmlns="http://www.w3.org/2000/svg">
<path d="M6.79689 5.46659L10.1802 1.23742C10.4219 0.926308 10.7091 0.69803 11.0418 0.552585C11.3745 0.407141 11.7217 0.33403 12.0833 0.333252C12.4458 0.333252 12.7934 0.406363 13.1261 0.552585C13.4588 0.698807 13.7456 0.927085 13.9865 1.23742L17.3698 5.46659L22.5052 7.12909C23.0288 7.28464 23.4417 7.57164 23.7438 7.99008C24.0458 8.40853 24.1969 8.87014 24.1969 9.37492C24.1969 9.60825 24.1614 9.84159 24.0906 10.0749C24.0197 10.3083 23.9041 10.5319 23.7438 10.7458L20.4208 15.2958L20.5417 20.0791C20.5618 20.7596 20.3302 21.3333 19.8469 21.7999C19.3636 22.2666 18.7997 22.4999 18.1552 22.4999C18.1149 22.4999 17.8934 22.4708 17.4906 22.4124L12.0833 20.9541L6.67606 22.4124C6.57536 22.4513 6.4646 22.4758 6.34376 22.4859C6.22293 22.496 6.11217 22.5007 6.01147 22.4999C5.36703 22.4999 4.80314 22.2666 4.31981 21.7999C3.83647 21.3333 3.60487 20.7596 3.62501 20.0791L3.74585 15.2666L0.453139 10.7458C0.292027 10.5319 0.176027 10.3083 0.105138 10.0749C0.0342496 9.84159 -0.000791979 9.60825 1.35768e-05 9.37492C1.35768e-05 8.88881 0.146222 8.43692 0.438638 8.01925C0.731055 7.60159 1.13867 7.30486 1.66147 7.12909L6.79689 5.46659Z" fill="#A3A3A3"/>
</svg>
