<svg width="25" height="23" viewBox="0 0 25 23" fill="none" xmlns="http://www.w3.org/2000/svg">
<path d="M7.38111 5.13409L10.7649 0.904299C11.0066 0.593143 11.2938 0.364831 11.6265 0.219365C11.9593 0.0738997 12.3065 0.000777892 12.6682 0C13.0308 0 13.3784 0.0731218 13.7112 0.219365C14.0439 0.365609 14.3307 0.593921 14.5716 0.904299L17.9554 5.13409L23.0915 6.79683C23.6151 6.95241 24.028 7.23945 24.3302 7.65796C24.6323 8.07646 24.7833 8.53814 24.7833 9.04299C24.7833 9.27636 24.7479 9.50973 24.677 9.7431C24.6061 9.97646 24.4905 10.2001 24.3302 10.414L21.0068 14.9647L21.1277 19.7487C21.1478 20.4294 20.9162 21.0031 20.4328 21.4698C19.9494 21.9366 19.3854 22.1699 18.7409 22.1699C18.7006 22.1699 18.4791 22.1407 18.0762 22.0824L12.6682 20.6239L7.26026 22.0824C7.15955 22.1213 7.04877 22.1458 6.92792 22.1559C6.80707 22.166 6.6963 22.1707 6.59559 22.1699C5.95106 22.1699 5.3871 21.9366 4.9037 21.4698C4.42031 21.0031 4.18868 20.4294 4.20882 19.7487L4.32967 14.9355L1.03654 10.414C0.875409 10.2001 0.759393 9.97646 0.688495 9.7431C0.617597 9.50973 0.582551 9.27636 0.583357 9.04299C0.583357 8.55681 0.729584 8.10486 1.02204 7.68713C1.31449 7.2694 1.72216 6.97263 2.24503 6.79683L7.38111 5.13409ZM8.86151 7.14688L3.00033 9.01382L6.74665 14.2354L6.6258 19.8071L12.6682 18.2027L18.7107 19.8362L18.5898 14.2354L22.3362 9.07216L16.475 7.14688L12.6682 2.33368L8.86151 7.14688Z" fill="#A3A3A3"/>
</svg>
