<svg width="41" height="41" viewBox="0 0 41 41" fill="none" xmlns="http://www.w3.org/2000/svg">
<path d="M20.5 41C17.6907 41 15.0424 40.4594 12.5551 39.3782C10.0678 38.297 7.89478 36.8256 6.03611 34.9639C4.17593 33.1037 2.70524 30.9299 1.62406 28.4426C0.54287 25.9553 0.00151852 23.3077 0 20.5C0 17.5389 0.569444 14.7676 1.70833 12.1861C2.84722 9.60463 4.44167 7.3838 6.49167 5.52361C6.94722 5.10602 7.48857 4.90633 8.11572 4.92456C8.74287 4.94278 9.26448 5.16144 9.68056 5.58055L22.0944 17.9944C22.512 18.412 22.7208 18.9435 22.7208 19.5889C22.7208 20.2343 22.512 20.7657 22.0944 21.1833C21.6769 21.6009 21.1454 21.8097 20.5 21.8097C19.8546 21.8097 19.3231 21.6009 18.9056 21.1833L8.2 10.4778C7.06111 11.8444 6.16898 13.3728 5.52361 15.0629C4.87824 16.7531 4.55556 18.5654 4.55556 20.5C4.55556 24.9037 6.11204 28.662 9.225 31.775C12.338 34.888 16.0963 36.4444 20.5 36.4444C24.9037 36.4444 28.662 34.888 31.775 31.775C34.888 28.662 36.4444 24.9037 36.4444 20.5C36.4444 16.438 35.1438 12.9363 32.5426 9.99489C29.9414 7.05352 26.6864 5.31633 22.7778 4.78333V6.83333C22.7778 7.4787 22.5591 8.02005 22.1218 8.45739C21.6844 8.89472 21.1439 9.11263 20.5 9.11111C19.8546 9.11111 19.314 8.89244 18.8782 8.45511C18.4424 8.01778 18.2237 7.47718 18.2222 6.83333V2.27778C18.2222 1.63241 18.4409 1.09181 18.8782 0.656C19.3156 0.220185 19.8561 0.00151852 20.5 0C23.3093 0 25.9576 0.541352 28.4449 1.62406C30.9322 2.70676 33.1052 4.17744 34.9639 6.03611C36.8241 7.8963 38.2955 10.0701 39.3782 12.5574C40.4609 15.0447 41.0015 17.6923 41 20.5C41 23.3093 40.4594 25.9576 39.3782 28.4449C38.297 30.9322 36.8256 33.1052 34.9639 34.9639C33.1037 36.8241 30.9299 38.2955 28.4426 39.3782C25.9553 40.4609 23.3077 41.0015 20.5 41ZM9.11111 22.7778C8.46574 22.7778 7.92515 22.5591 7.48933 22.1218C7.05352 21.6844 6.83485 21.1439 6.83333 20.5C6.83333 19.8546 7.052 19.314 7.48933 18.8782C7.92667 18.4424 8.46726 18.2237 9.11111 18.2222C9.75648 18.2222 10.2978 18.4409 10.7352 18.8782C11.1725 19.3156 11.3904 19.8561 11.3889 20.5C11.3889 21.1454 11.1702 21.6867 10.7329 22.1241C10.2956 22.5614 9.75496 22.7793 9.11111 22.7778ZM20.5 34.1667C19.8546 34.1667 19.314 33.948 18.8782 33.5107C18.4424 33.0733 18.2237 32.5327 18.2222 31.8889C18.2222 31.2435 18.4409 30.7029 18.8782 30.2671C19.3156 29.8313 19.8561 29.6126 20.5 29.6111C21.1454 29.6111 21.6867 29.8298 22.1241 30.2671C22.5614 30.7044 22.7793 31.245 22.7778 31.8889C22.7778 32.5343 22.5591 33.0756 22.1218 33.5129C21.6844 33.9503 21.1439 34.1682 20.5 34.1667ZM31.8889 22.7778C31.2435 22.7778 30.7029 22.5591 30.2671 22.1218C29.8313 21.6844 29.6126 21.1439 29.6111 20.5C29.6111 19.8546 29.8298 19.314 30.2671 18.8782C30.7044 18.4424 31.245 18.2237 31.8889 18.2222C32.5343 18.2222 33.0756 18.4409 33.5129 18.8782C33.9503 19.3156 34.1682 19.8561 34.1667 20.5C34.1667 21.1454 33.948 21.6867 33.5107 22.1241C33.0733 22.5614 32.5327 22.7793 31.8889 22.7778Z" fill="#A3A3A3"/>
</svg>
