<svg width="25" height="26" viewBox="0 0 25 26" fill="none" xmlns="http://www.w3.org/2000/svg">
<path d="M2.63158 26C1.90789 26 1.2886 25.7456 0.773684 25.2369C0.258772 24.7282 0.000877193 24.1159 0 23.4V2.6C0 1.885 0.257894 1.27313 0.773684 0.7644C1.28947 0.255667 1.90877 0.000866666 2.63158 0H12.0724C12.4232 0 12.7579 0.0650001 13.0763 0.195C13.3947 0.325 13.6741 0.509167 13.9145 0.7475L20.296 7.0525C20.5373 7.29083 20.7237 7.5673 20.8553 7.8819C20.9868 8.1965 21.0526 8.5267 21.0526 8.8725V10.92C21.0526 11.1583 20.9816 11.3642 20.8395 11.5375C20.6974 11.7108 20.5162 11.8408 20.296 11.9275C19.9452 12.0575 19.6105 12.2256 19.2921 12.4319C18.9737 12.6382 18.6833 12.8709 18.421 13.13L11.3158 20.15C11.0746 20.3883 10.8829 20.6648 10.7408 20.9794C10.5987 21.294 10.5272 21.6242 10.5263 21.97V24.7C10.5263 25.0683 10.4 25.3773 10.1474 25.6269C9.89473 25.8765 9.58245 26.0009 9.21052 26H2.63158ZM13.1579 24.7V22.555C13.1579 22.3817 13.1908 22.214 13.2566 22.0519C13.3224 21.8898 13.421 21.7434 13.5526 21.6125L20.4276 14.8525C20.625 14.6575 20.8443 14.5167 21.0855 14.43C21.3267 14.3433 21.568 14.3 21.8092 14.3C22.0724 14.3 22.3246 14.349 22.5658 14.4469C22.807 14.5448 23.0263 14.6909 23.2237 14.885L24.4408 16.0875C24.6162 16.2825 24.7535 16.4992 24.8526 16.7375C24.9517 16.9758 25.0009 17.2142 25 17.4525C25 17.6908 24.9561 17.9348 24.8684 18.1844C24.7807 18.434 24.6381 18.6559 24.4408 18.85L17.5987 25.61C17.4671 25.74 17.3193 25.8375 17.1553 25.9025C16.9912 25.9675 16.821 26 16.6447 26H14.4737C14.1009 26 13.7886 25.8756 13.5368 25.6269C13.2851 25.3782 13.1588 25.0692 13.1579 24.7ZM21.8092 18.72L23.0263 17.4525L21.8092 16.25L20.5592 17.485L21.8092 18.72ZM13.1579 9.1H18.421L11.8421 2.6V7.8C11.8421 8.16833 11.9684 8.4773 12.221 8.7269C12.4737 8.9765 12.786 9.10086 13.1579 9.1Z" fill="white"/>
</svg>
