<svg width="30" height="24" viewBox="0 0 30 24" fill="none" xmlns="http://www.w3.org/2000/svg">
<path d="M29.6154 10.2178C29.8718 10.4894 30 10.8121 30 11.186C30 11.5598 29.8718 11.8821 29.6154 12.1528L24.6503 16.9392C24.3939 17.2108 24.0676 17.3465 23.6713 17.3465C23.2751 17.3465 22.9487 17.2108 22.6923 16.9392L20.6993 15.0382C20.4196 14.7666 20.2797 14.4444 20.2797 14.0714C20.2797 13.6984 20.4196 13.3757 20.6993 13.1033C20.979 12.8543 21.3114 12.7298 21.6965 12.7298C22.0816 12.7298 22.4135 12.8543 22.6923 13.1033L23.6713 14.0537L27.6224 10.2178C27.9021 9.96888 28.234 9.84441 28.6182 9.84441C29.0023 9.84441 29.3347 9.96888 29.6154 10.2178ZM13.042 23.6605L9.54545 20.5714C7.86713 19.1004 6.42797 17.7878 5.22797 16.6337C4.02797 15.4795 3.0373 14.3932 2.25594 13.3748C1.47459 12.3564 0.903496 11.372 0.542657 10.4215C0.181818 9.471 0.000932401 8.47525 0 7.43423C0 5.30693 0.734266 3.53629 2.2028 2.12232C3.67133 0.708345 5.50117 0.000905233 7.69231 0C8.90443 0 10.0583 0.243508 11.1538 0.730523C12.2494 1.21754 13.1935 1.91321 13.986 2.81754C14.7786 1.91231 15.7226 1.21663 16.8182 0.730523C17.9138 0.244413 19.0676 0.000905233 20.2797 0C22.2611 0 23.9221 0.58297 25.2629 1.74891C26.6037 2.91485 27.4368 4.27813 27.7622 5.83876C27.296 5.65771 26.8065 5.54455 26.2937 5.49929C25.7809 5.45403 25.2564 5.4314 24.7203 5.4314C22.7389 5.4314 20.9207 6.20673 19.2657 7.7574C17.6107 9.30806 16.7832 11.2484 16.7832 13.5785C16.7832 14.6648 17.028 15.7683 17.5175 16.8889C18.007 18.0096 18.6946 18.9203 19.5804 19.6209C19.1375 20.0057 18.5608 20.4981 17.8503 21.0983C17.1399 21.6984 16.5277 22.2244 16.014 22.6761L14.8951 23.6605C14.6387 23.8868 14.3296 24 13.9678 24C13.6061 24 13.2974 23.8868 13.042 23.6605Z" fill="#A3A3A3"/>
</svg>
